<?xml version="1.0" encoding="utf-8"?>
<!-- Generator: Adobe Illustrator 25.2.0, SVG Export Plug-In . SVG Version: 6.00 Build 0)  -->
<svg version="1.1" id="Livello_1" xmlns="http://www.w3.org/2000/svg" xmlns:xlink="http://www.w3.org/1999/xlink" x="0px" y="0px"
	 viewBox="0 0 1329.8 339.5" style="enable-background:new 0 0 1329.8 339.5;" xml:space="preserve">
<style type="text/css">
	.st0{fill:#00E165;}
	.st1{fill:#001533;}
</style>
<g id="Livello_2_1_">
	<g id="Layer_1">
		<path class="st0" d="M9.6,4.1l78.7,0.2c26.9,0.1,46.5,6.4,58.6,19s17.8,32,16.8,57.9c-0.2,4.4-0.4,8.8-0.6,13.2
			c-0.7,17-4.2,30.7-10.2,41.2s-14.9,18.2-26.7,23c0,0.3,0,0.6,0,0.9c26,8.1,38,30.2,37.9,63.9c0,8.5,0.1,16.9,0.2,25.2
			c0.5,22.3-5,38.6-17.2,51.3s-30.9,21-56.8,25.3c-27.3,4.4-54.5,9.2-81.7,14.2C-11.1,229.6,9,115.9,9.6,4.1z M76.7,140.2
			c10.6-0.1,18.6-2.9,24.2-8.3c5.6-5.4,8.6-14.3,9.3-26.9c0.3-6.1,0.6-12.3,0.9-18.5c0.6-12-1.2-20.8-5.3-26.2S95,52.2,85.8,52.2
			H60.6c-1.2,29.6-3,59.1-4.6,88.4L76.7,140.2z M85.4,283c9.3-1,16-3.8,20.2-8.6s6-12.5,5.8-23.5c-0.2-8.8-0.3-17.7-0.3-26.7
			c0-14.2-2.3-24.1-7.5-29.6s-13.8-8.1-26-7.7l-23.6,0.7c-1.2,33.6-1.2,66.5,1.3,98.6C65.3,285.1,75.3,284.1,85.4,283z"/>
		<path class="st0" d="M214.7,294.6c-14.8-9.3-23-25-23.5-47.6c-1.1-49.6,2.1-105.6,4.3-163.4c1-26.4,8.3-47.2,22.1-61.8
			S251-0.1,276.6,0s45.2,7.4,58.7,22.1s20,35.3,19.4,61.4c-1.3,57.1-3.3,111.2-2.8,155.5c0.2,20.2-5.9,34.1-18.9,44.5
			s-31.9,16.7-57.5,19.7S229.5,304,214.7,294.6z M299,243.9c-0.8-47.2,1.7-104,3.3-163.6c0.6-21.6-8.3-32.6-26.3-32.6
			s-27.3,10.9-28,32.6c-1.9,59.9-4.9,117.4-3.8,166.4c0.4,17.7,10.1,25,28.3,23.7S299.4,260.8,299,243.9z"/>
		<path class="st0" d="M405.5,278.2c-14.2-7.8-21.8-20.7-22-40.5c-0.5-43.4,1.3-97.2,2.5-154.2c0.6-26,7.6-46.7,21.3-61.2
			s33.3-21.8,58.9-21.8s45.2,7.4,58.8,22c13.5,14.6,20.2,35.2,20,61c-0.5,56.5-1.3,109.3-1.1,149.9c0,18.6-6.6,30.6-20,38.9
			s-32.8,12.5-58.5,14.2S419.8,286,405.5,278.2z M491.2,236.8c-0.3-42.5,0.9-97.6,1.6-156.6c0.3-21.3-8.7-32.3-26.7-32.3
			s-27.2,10.9-27.5,32.3c-1,59.1-2.5,114.7-2.1,158.1c0.2,15.6,9.6,21.8,27.8,21.2C482.4,258.7,491.3,252.1,491.2,236.8L491.2,236.8
			z"/>
		<path class="st0" d="M580.6,5.5l52.2,0.1c0,94.9-0.7,189.6-0.4,247.1c28.9-0.2,57.8-0.3,86.8-0.1c0,9.6-0.1,18.1-0.3,25.5
			c-46.2-0.5-92.5-0.1-138.7,1.1C578.5,226.8,580.5,116.3,580.6,5.5z"/>
		<path class="st1" d="M743.7,5.9l138,0.3c0,15.8,0.1,31.5,0.3,47.1l-86-0.2c0.2,30.4,0.5,60.2,0.8,88.1c22.7,0.1,45.3,0.2,67.9,0.3
			c0.2,14.4,0.4,28.3,0.6,41.6c-22.7-0.2-45.4-0.4-68.1-0.6c0.3,40.1,0.3,74.1-0.7,97.3c-17.5-0.6-34.9-1-52.4-1.3
			C745.4,226.6,743.8,116.4,743.7,5.9z"/>
		<path class="st1" d="M906.9,6.3l52.2,0.1c0.2,94.4,5.3,188.9,3.1,253c28.9,1.4,57.8,3,86.8,4.9c-0.5,11.5-1.3,22.2-2.5,32.1
			c-46.1-4.7-92.2-8.4-138.4-11.3C912.6,226.8,907,116.6,906.9,6.3z"/>
		<path class="st1" d="M1070,6.7l52.2,0.1c0.3,109.9,12.1,220.5,1.5,298.2c-17.4-2.1-34.8-4.1-52.2-6
			C1080.4,227.1,1070.3,116.7,1070,6.7z"/>
		<path class="st1" d="M1213,166c-21.5-51.7-44-105.3-63.2-159.1l55,0.1c11.8,35.5,25.2,71,38.8,106.2h1c10.3-35,20.5-70.6,32.3-106
			l49.3,0.1c-18.8,53.4-33.5,107.7-50.6,159.9c22.7,55.6,44.2,110.3,54.3,168.8c-18.2-3.3-36.5-6.4-54.7-9.4
			c-6.8-36.4-18.2-72.4-31.4-108.9h-1c-12.9,35.3-27.6,68.5-45.1,97c-16.4-2.3-32.8-4.6-49.2-6.7
			C1174.3,269.4,1194.8,219.4,1213,166z"/>
	</g>
</g>
</svg>
