<?xml version="1.0" encoding="utf-8"?>
<!-- Generator: Adobe Illustrator 25.2.0, SVG Export Plug-In . SVG Version: 6.00 Build 0)  -->
<svg version="1.1" id="Livello_1" xmlns="http://www.w3.org/2000/svg" xmlns:xlink="http://www.w3.org/1999/xlink" x="0px" y="0px"
	 viewBox="0 0 1329.8 339.5" style="enable-background:new 0 0 1329.8 339.5;" xml:space="preserve">
<style type="text/css">
	.st0{fill:#00E165;}
	.st1{fill:#001533;}
</style>
<g id="Livello_2_1_">
	<g>
		<g>
			<path class="st0" d="M14.9,6.2c25.9,0,51.7-0.1,77.6-0.1c26.5,0,45.8,5.9,57.9,17.5c12.1,11.7,18.2,29.5,18.2,53.8
				c0,4.1,0,8.3,0,12.4c0,16-2.8,29.1-8.2,39.4c-5.5,10.3-13.8,17.9-25,23c0,0.3,0,0.6,0,0.9c25.5,7.2,38.2,28.1,38.2,62.9
				c0,8.9,0,17.7,0,26.6c0,23.9-6.7,42.6-19.9,56.5c-13.2,13.8-32.6,22.2-58.1,24.9c-26.9,2.9-53.7,6.1-80.6,9.4
				C14.9,224.3,14.9,115.2,14.9,6.2z M86.3,135.9c10.3-0.5,18-3.4,23.1-8.7c5.1-5.3,7.7-14,7.7-26c0-5.9,0-11.7,0-17.6
				c0-11.4-2.1-19.6-6.3-24.7c-4.2-5-10.8-7.5-19.8-7.3c-8.3,0.1-16.5,0.3-24.8,0.4c0,28.3,0,56.6,0,84.9
				C72.9,136.5,79.6,136.2,86.3,135.9z M95.5,278.5c9-0.8,15.7-3.8,20.1-8.8c4.4-5,6.5-13.2,6.6-24.6c0-9.2,0-18.3,0-27.5
				c0-14.4-2.5-24.2-7.7-29.5c-5.1-5.2-13.6-7.5-25.4-6.8c-7.6,0.5-15.2,0.9-22.9,1.4c0,32.9,0,65.7-0.1,98.6
				C75.9,280.3,85.7,279.4,95.5,278.5z"/>
			<path class="st0" d="M219.6,296.1c-13.4-12.3-20-30.9-20-55.5c0.1-53.9,0.2-107.8,0.2-161.8c0-24.6,6.8-43.8,20.2-57.3
				c13.4-13.5,32.7-20.1,58-20.1c25.2,0,44.5,6.6,57.9,19.6c13.4,13,20,31.3,20,55c-0.1,51.9-0.2,103.9-0.2,155.8
				c0,23.7-6.8,42.4-20.2,56.2c-13.4,13.8-32.8,21.7-58,23.6C252.3,313.5,233,308.5,219.6,296.1z M304.2,237.3
				c0.1-54.5,0.2-109,0.3-163.5c0-19.7-8.8-29.4-26.6-29.3c-17.8,0.2-26.7,10.2-26.7,30.2c-0.1,55.2-0.2,110.4-0.3,165.6
				c0,20,8.8,29.3,26.6,28.1C295.3,267.4,304.2,257,304.2,237.3z"/>
			<path class="st0" d="M406.6,284.2c-13.4-12.2-20.1-30.2-20-53.7c0.1-51.6,0.2-103.3,0.2-154.9c0-23.6,6.8-41.9,20.2-54.8
				c13.4-12.9,32.7-19.3,58-19.3c25.2,0,44.5,6.4,57.9,19c13.4,12.7,20.1,30.5,20.1,53.6c0,50.6-0.1,101.2-0.1,151.8
				c0,23.1-6.7,41.1-20.2,54.1c-13.4,13-32.8,19.9-58.1,20.9C439.3,301.9,419.9,296.5,406.6,284.2z M491.3,229.9
				c0.1-52.8,0.1-105.6,0.2-158.4c0-19.1-8.9-28.6-26.6-28.5c-17.8,0.1-26.7,9.7-26.7,29c-0.1,53.1-0.1,106.3-0.2,159.4
				c0,19.2,8.9,28.5,26.6,27.9C482.4,258.8,491.3,249,491.3,229.9z"/>
			<path class="st0" d="M577.5,5.6c17.1,0,34.3,0,51.4,0c0,82.1,0,164.3-0.1,246.4c28.2-0.2,56.5-0.1,84.7,0.1c0,13.7,0,27.4,0,41.1
				c-45.4-0.4-90.8-0.3-136.2,0.5C577.4,197.7,577.5,101.7,577.5,5.6z"/>
			<path class="st1" d="M738.3,5.6c45.3,0,90.7,0,136,0.1c0,13.9,0,27.8,0.1,41.6c-28.2-0.2-56.4-0.3-84.6-0.4
				c0,26.8,0,53.6,0.1,80.5c22.1,0.2,44.3,0.5,66.4,0.9c0,13.8,0,27.7,0,41.5c-22.1-0.5-44.3-0.8-66.4-1.1
				c0,41.9,0.1,83.9,0.1,125.8c-17.2-0.4-34.3-0.7-51.5-1C738.4,197.5,738.3,101.6,738.3,5.6z"/>
			<path class="st1" d="M899,5.7c17.1,0,34.3,0,51.4,0c0.1,84.3,0.3,168.6,0.4,252.9c28.2,1.3,56.4,2.8,84.6,4.5
				c0,14.3,0,28.6,0.1,42.9c-45.3-3.2-90.7-5.8-136.1-7.8C899.3,200.7,899.1,103.2,899,5.7z"/>
			<path class="st1" d="M1059.8,5.8c17.1,0,34.3,0,51.4,0.1c0.2,102,0.3,204.1,0.5,306.1c-17.1-1.5-34.2-2.8-51.4-4.1
				C1060.1,207.2,1059.9,106.5,1059.8,5.8z"/>
			<path class="st1" d="M1195,159.3c-18.9-52-37.8-103.1-56.7-153.4c18.1,0,36.1,0,54.2,0.1c11.6,33.8,23.1,67.9,34.7,102.4
				c0.3,0,0.6,0,0.9,0c11.8-33.7,23.6-67.8,35.4-102.3c16.2,0,32.4,0.1,48.6,0.1c-18.8,53.2-37.7,105.2-56.4,156.3
				c19.8,55.7,39.5,112.6,59.2,170.8c-18-2.2-36-4.4-54-6.4c-12.4-38.7-24.9-76.8-37.4-114.5c-0.3,0-0.6,0-0.9-0.1
				c-12.7,35.9-25.4,71.3-38.1,106.4c-16.2-1.6-32.3-3.1-48.5-4.6C1155.6,263.4,1175.3,211.8,1195,159.3z"/>
		</g>
	</g>
</g>
</svg>
